<svg id="svg" version="1.1" width="400" height="497.5609756097561" viewBox="0 0 400 497.5609756097561" xmlns="http://www.w3.org/2000/svg" xmlns:xlink="http://www.w3.org/1999/xlink" ><g id="svgg"><path id="path0" d="M46.635 0.344 C 46.518 0.533,45.224 0.810,43.759 0.960 C 40.605 1.283,38.639 2.028,37.926 3.170 C 37.641 3.627,37.046 4.002,36.604 4.004 C 35.438 4.010,31.761 5.804,31.495 6.497 C 31.370 6.822,30.438 7.297,29.422 7.553 C 27.853 7.948,27.541 8.193,27.343 9.187 C 27.169 10.054,26.821 10.420,25.996 10.601 C 24.729 10.879,23.750 11.831,23.537 12.992 C 23.428 13.591,22.889 13.884,21.331 14.192 C 19.243 14.605,17.600 15.689,17.600 16.652 C 17.600 16.942,17.046 17.466,16.368 17.816 C 15.632 18.197,14.894 19.046,14.533 19.927 C 14.201 20.737,13.244 22.120,12.405 23.000 C 11.567 23.880,10.763 25.164,10.618 25.854 C 10.415 26.828,10.098 27.160,9.201 27.340 C 8.295 27.521,7.961 27.879,7.652 28.998 C 7.435 29.783,6.733 30.915,6.092 31.514 C 5.325 32.231,4.751 33.337,4.411 34.754 C 4.070 36.174,3.506 37.261,2.748 37.953 C 1.789 38.829,1.528 39.506,1.152 42.100 C 0.905 43.805,0.545 45.200,0.351 45.200 C -0.135 45.200,-0.109 92.695,0.377 92.867 C 0.585 92.940,0.939 94.149,1.164 95.553 C 1.562 98.042,2.427 99.600,3.410 99.600 C 3.687 99.600,4.105 100.673,4.384 102.100 C 4.870 104.593,5.678 106.000,6.622 106.000 C 6.896 106.000,7.276 106.657,7.466 107.460 C 7.798 108.866,8.221 109.303,9.678 109.750 C 10.090 109.876,10.456 110.555,10.611 111.479 C 11.084 114.301,11.434 114.994,12.673 115.550 C 13.347 115.853,14.147 116.654,14.450 117.329 C 14.752 118.004,15.504 118.836,16.120 119.178 C 16.735 119.520,17.461 120.250,17.731 120.800 C 18.002 121.350,18.723 122.040,19.334 122.332 C 19.945 122.625,20.596 123.263,20.781 123.749 C 21.250 124.983,21.961 125.484,23.706 125.810 C 24.534 125.965,25.356 126.350,25.533 126.666 C 25.710 126.983,26.832 127.919,28.027 128.748 C 31.485 131.145,31.240 131.600,26.491 131.600 C 22.505 131.600,21.200 132.063,21.200 133.478 C 21.200 133.706,19.935 133.983,18.390 134.094 C 15.413 134.307,14.000 135.069,14.000 136.462 C 14.000 137.026,13.693 137.202,12.700 137.210 C 9.283 137.235,7.618 138.117,7.606 139.910 C 7.602 140.487,7.265 140.947,6.684 141.168 C 5.305 141.692,4.923 142.354,4.369 145.183 C 3.980 147.168,3.601 147.987,2.732 148.719 L 1.600 149.671 1.617 194.936 C 1.635 240.765,1.710 243.274,3.101 244.401 C 3.529 244.747,4.012 245.744,4.175 246.615 C 4.531 248.518,5.034 249.200,6.081 249.200 C 6.625 249.200,7.059 249.695,7.502 250.824 C 7.971 252.017,8.418 252.504,9.188 252.658 C 9.972 252.814,10.466 253.370,11.152 254.866 C 12.177 257.099,12.182 257.084,9.878 258.198 C 8.322 258.950,8.181 259.162,7.609 261.597 C 7.136 263.613,6.821 264.226,6.200 264.340 C 5.009 264.558,4.524 265.082,4.251 266.446 C 4.116 267.122,3.460 268.184,2.793 268.807 L 1.581 269.939 1.690 317.007 L 1.800 364.076 2.856 364.938 C 3.438 365.413,4.043 366.429,4.203 367.200 C 4.560 368.925,5.075 369.600,6.035 369.600 C 6.879 369.600,7.380 370.398,7.796 372.400 C 8.178 374.242,9.349 375.464,11.034 375.780 C 13.083 376.164,12.462 377.659,10.032 378.193 C 8.451 378.540,8.157 378.982,7.594 381.859 C 7.161 384.069,7.000 384.340,6.002 384.540 C 4.887 384.763,4.000 386.322,4.000 388.060 C 4.000 388.467,3.736 388.800,3.414 388.800 C 1.800 388.800,1.805 388.683,1.689 437.320 L 1.578 484.039 2.761 485.223 C 3.589 486.051,4.086 487.096,4.416 488.703 C 4.940 491.261,5.342 491.922,6.684 492.432 C 7.265 492.653,7.602 493.113,7.606 493.690 C 7.618 495.486,9.016 496.400,11.750 496.400 C 12.742 496.400,13.664 496.580,13.800 496.800 C 13.963 497.063,31.912 497.200,66.348 497.200 C 124.956 497.200,121.399 497.376,122.513 494.424 C 122.776 493.728,123.416 493.138,124.228 492.844 C 125.721 492.305,125.905 491.946,126.265 488.886 C 126.473 487.120,126.761 486.444,127.615 485.726 C 129.534 484.111,129.601 482.468,129.588 437.084 C 129.574 390.141,129.461 388.000,126.995 388.000 C 126.703 388.000,126.418 387.082,126.270 385.667 C 125.941 382.516,125.734 382.100,124.221 381.553 C 123.302 381.221,122.773 380.682,122.427 379.725 C 122.060 378.709,121.639 378.308,120.754 378.131 C 119.010 377.782,118.441 376.495,119.891 376.176 C 121.873 375.742,122.029 375.629,122.623 374.206 C 122.946 373.433,123.478 372.800,123.805 372.800 C 125.103 372.800,125.941 371.307,126.217 368.503 C 126.441 366.237,126.637 365.685,127.332 365.376 C 129.426 364.443,129.400 365.054,129.400 316.200 C 129.400 267.367,129.477 269.164,127.349 268.227 C 126.655 267.922,126.459 267.388,126.261 265.269 C 126.007 262.555,125.316 261.335,123.908 261.122 C 123.388 261.044,122.940 260.502,122.650 259.600 C 122.303 258.520,121.880 258.097,120.800 257.748 C 118.941 257.149,118.795 256.229,120.483 255.757 C 121.387 255.504,121.988 254.986,122.400 254.103 C 122.730 253.396,123.201 252.813,123.446 252.809 C 124.942 252.780,125.920 251.186,126.209 248.306 C 126.427 246.138,126.692 245.271,127.256 244.876 C 129.494 243.308,129.400 245.472,129.400 195.600 C 129.400 146.402,129.484 148.392,127.376 147.591 C 126.580 147.288,126.400 146.941,126.398 145.710 C 126.394 142.911,125.695 141.248,124.382 140.907 C 123.595 140.703,122.962 140.135,122.499 139.218 C 122.008 138.247,121.413 137.737,120.500 137.506 C 119.785 137.325,119.200 136.925,119.200 136.618 C 119.200 135.507,117.223 134.466,114.573 134.182 C 112.647 133.976,111.875 133.714,111.582 133.166 C 111.364 132.760,110.424 132.223,109.493 131.973 C 108.562 131.723,107.662 131.435,107.493 131.331 C 106.960 131.006,108.809 128.813,109.833 128.556 C 110.372 128.421,111.186 127.835,111.642 127.255 C 112.098 126.675,113.130 126.017,113.935 125.794 C 114.984 125.503,115.554 125.040,115.941 124.166 C 116.256 123.455,116.977 122.757,117.666 122.497 C 118.380 122.228,119.025 121.589,119.289 120.889 C 119.543 120.216,120.195 119.551,120.840 119.307 C 121.539 119.044,122.177 118.350,122.556 117.444 C 122.888 116.650,123.404 116.000,123.704 116.000 C 124.616 116.000,126.000 114.429,126.000 113.394 C 126.000 112.816,126.377 112.171,126.924 111.813 C 127.433 111.480,128.244 110.504,128.726 109.646 C 129.448 108.361,130.287 107.600,130.980 107.600 C 131.043 107.600,131.193 108.334,131.313 109.231 C 131.537 110.901,132.534 112.400,133.421 112.400 C 133.744 112.400,134.018 113.387,134.201 115.207 C 134.493 118.113,137.960 122.800,139.818 122.800 C 140.161 122.800,140.631 123.344,140.863 124.008 C 141.310 125.291,142.254 126.000,143.514 126.000 C 143.936 126.000,144.833 126.527,145.508 127.172 C 147.663 129.232,146.786 129.196,195.400 129.184 C 244.983 129.170,245.058 129.167,247.735 126.839 C 248.139 126.488,249.219 126.015,250.135 125.788 C 251.433 125.467,251.925 125.096,252.365 124.104 C 252.705 123.339,253.388 122.673,254.079 122.432 C 254.823 122.173,255.434 121.538,255.814 120.629 C 256.514 118.953,257.515 119.076,257.877 120.883 C 258.164 122.318,262.387 126.000,263.746 126.000 C 264.272 126.000,264.996 126.468,265.478 127.120 C 267.024 129.212,266.734 129.200,315.767 129.200 C 365.181 129.200,365.562 129.183,368.178 126.864 C 368.630 126.464,369.731 125.928,370.625 125.674 C 371.866 125.322,372.386 124.904,372.825 123.906 C 373.190 123.077,373.733 122.553,374.310 122.471 C 375.561 122.293,376.267 121.010,376.582 118.337 C 376.812 116.385,376.980 116.041,377.813 115.833 C 379.876 115.315,379.800 117.231,379.800 65.600 C 379.800 13.654,379.883 15.775,377.800 14.637 C 376.731 14.053,376.413 13.571,376.406 12.522 C 376.398 11.386,372.748 7.774,371.296 7.465 C 370.563 7.310,370.001 6.797,369.600 5.918 C 369.085 4.788,368.730 4.558,367.089 4.290 C 366.038 4.118,364.839 3.639,364.426 3.226 C 362.796 1.596,361.298 1.549,314.662 1.677 L 269.924 1.800 269.062 2.868 C 268.528 3.530,267.613 4.045,266.658 4.221 C 265.410 4.451,265.010 4.757,264.563 5.827 C 264.079 6.986,263.775 7.184,262.105 7.426 C 259.538 7.798,258.832 8.225,258.173 9.804 C 257.572 11.242,256.399 11.703,255.000 11.049 C 254.560 10.844,253.930 10.549,253.600 10.395 C 253.270 10.241,252.936 9.774,252.857 9.357 C 252.646 8.241,252.113 7.725,250.891 7.455 C 250.253 7.314,249.466 6.674,248.996 5.913 C 248.408 4.963,247.809 4.550,246.771 4.381 C 245.990 4.254,244.976 3.776,244.517 3.317 C 242.846 1.646,241.526 1.600,194.750 1.600 L 149.938 1.600 148.784 2.755 C 147.929 3.610,146.991 4.022,145.170 4.343 C 142.496 4.813,141.703 5.278,141.168 6.684 C 140.935 7.297,140.494 7.600,139.833 7.600 C 138.809 7.600,137.597 8.898,137.604 9.989 C 137.606 10.325,137.061 11.050,136.393 11.600 C 135.012 12.737,134.013 15.792,134.005 18.900 C 134.001 20.223,133.836 20.800,133.462 20.800 C 132.066 20.800,131.451 22.361,131.223 26.484 C 130.989 30.743,130.411 31.872,129.563 29.731 C 128.759 27.702,128.537 27.421,127.562 27.194 C 126.757 27.007,126.500 26.547,125.990 24.385 C 125.463 22.146,125.212 21.720,124.125 21.200 C 123.434 20.870,122.628 20.060,122.334 19.400 C 122.040 18.740,121.295 17.960,120.678 17.668 C 120.061 17.375,119.404 16.737,119.219 16.251 C 118.700 14.884,117.864 14.394,115.596 14.125 C 113.701 13.900,113.457 13.755,112.950 12.543 C 112.581 11.659,111.921 11.010,110.996 10.624 C 110.086 10.244,109.600 9.773,109.600 9.269 C 109.600 8.293,108.947 7.767,107.300 7.414 C 106.585 7.262,106.000 6.909,106.000 6.630 C 106.000 5.645,104.566 4.850,101.900 4.359 C 100.385 4.080,99.200 3.656,99.200 3.393 C 99.200 2.142,95.348 0.800,91.757 0.800 C 91.037 0.800,90.336 0.620,90.200 0.400 C 89.891 -0.100,46.943 -0.155,46.635 0.344 M151.861 132.800 C 150.992 133.834,150.579 134.000,148.886 134.000 C 146.652 134.000,144.430 134.655,144.339 135.339 C 144.306 135.593,144.260 136.066,144.238 136.391 C 144.212 136.777,143.368 137.166,141.807 137.513 C 139.173 138.097,138.196 138.764,137.828 140.229 C 137.694 140.763,137.350 141.200,137.062 141.200 C 135.526 141.200,134.000 145.102,134.000 149.031 C 134.000 150.246,133.832 150.800,133.462 150.800 C 131.305 150.800,131.409 148.619,131.302 196.142 C 131.198 242.502,131.153 241.330,133.059 242.174 C 133.748 242.479,133.954 243.033,134.172 245.159 C 134.536 248.705,137.529 252.800,139.758 252.800 C 140.451 252.800,142.129 256.287,141.822 257.087 C 141.710 257.378,141.084 257.723,140.430 257.854 C 139.037 258.133,138.208 258.977,137.851 260.479 C 137.702 261.107,137.136 261.779,136.498 262.085 C 135.178 262.717,134.441 264.684,134.121 268.428 C 133.936 270.591,133.748 271.121,133.055 271.428 C 131.154 272.270,131.198 271.112,131.302 317.458 C 131.408 364.836,131.314 362.800,133.405 362.800 C 133.709 362.800,133.982 363.839,134.148 365.626 C 134.427 368.631,135.640 371.600,136.589 371.600 C 136.904 371.600,137.709 372.396,138.378 373.368 C 139.233 374.611,140.041 375.273,141.097 375.598 C 141.924 375.853,142.847 376.140,143.150 376.237 C 143.904 376.478,138.792 381.477,137.045 382.207 C 135.403 382.893,134.467 384.959,134.122 388.660 C 133.974 390.238,133.702 391.200,133.404 391.200 C 131.314 391.200,131.408 389.165,131.302 436.542 C 131.198 482.887,131.154 481.730,133.055 482.572 C 133.763 482.886,133.930 483.400,134.113 485.826 C 134.363 489.128,135.078 490.774,136.794 491.996 C 137.457 492.468,138.000 493.120,138.000 493.445 C 138.000 494.567,139.846 495.928,141.755 496.214 C 142.775 496.367,143.708 496.652,143.829 496.846 C 144.144 497.357,248.284 497.311,248.600 496.800 C 248.736 496.580,249.337 496.400,249.935 496.400 C 251.321 496.400,252.800 495.373,252.800 494.410 C 252.800 493.947,253.367 493.389,254.300 492.933 C 255.740 492.230,255.815 492.091,256.162 489.507 C 256.440 487.441,256.695 486.760,257.260 486.581 C 259.314 485.929,259.200 488.832,259.200 437.200 C 259.200 385.501,259.318 388.472,257.235 387.811 C 256.651 387.626,256.413 387.036,256.207 385.259 C 255.887 382.504,255.777 382.305,254.100 381.446 C 253.354 381.063,252.800 380.469,252.800 380.052 C 252.800 379.045,251.632 378.093,250.200 377.933 C 249.311 377.835,249.000 377.593,249.000 377.000 C 249.000 376.407,249.311 376.165,250.200 376.067 C 251.642 375.906,252.711 375.026,252.878 373.862 C 252.947 373.381,253.349 372.945,253.800 372.863 C 254.240 372.783,254.870 372.490,255.200 372.213 C 256.005 371.536,258.399 372.510,258.693 373.634 C 258.930 374.540,260.245 375.313,262.653 375.961 C 263.893 376.294,264.426 376.697,264.789 377.574 C 265.562 379.439,264.431 379.395,314.299 379.509 C 366.130 379.628,365.497 379.650,366.400 377.707 C 366.922 376.585,367.209 376.411,368.600 376.369 C 371.210 376.290,372.156 375.865,372.866 374.455 C 373.232 373.727,374.132 372.832,374.866 372.466 C 375.817 371.991,376.258 371.456,376.404 370.602 C 376.590 369.506,376.728 369.414,378.015 369.525 C 383.963 370.037,388.148 367.008,386.200 363.600 C 385.059 361.604,385.366 340.081,386.572 337.582 C 390.185 330.092,388.954 326.609,382.512 326.092 L 380.000 325.890 379.997 299.645 C 379.993 268.058,379.815 265.718,377.345 264.779 C 376.777 264.563,376.411 264.038,376.329 263.321 C 376.232 262.482,375.822 262.015,374.700 261.467 C 373.743 260.999,373.200 260.456,373.200 259.967 C 373.200 258.895,371.790 257.600,370.622 257.600 C 369.953 257.600,369.478 257.257,369.122 256.517 C 367.970 254.126,369.818 254.206,315.800 254.203 L 266.600 254.200 264.734 255.062 C 263.708 255.537,262.666 256.304,262.418 256.767 C 262.170 257.230,261.302 257.923,260.488 258.305 C 259.675 258.688,258.774 259.495,258.485 260.098 C 257.369 262.426,253.164 262.239,252.874 259.847 C 252.738 258.730,251.456 257.600,250.325 257.600 C 249.942 257.600,249.435 257.240,249.200 256.800 C 248.827 256.103,248.896 256.000,249.732 256.000 C 250.957 256.000,252.800 254.564,252.800 253.610 C 252.800 253.161,253.251 252.721,253.969 252.471 C 255.434 251.960,255.845 251.193,256.206 248.300 C 256.399 246.745,256.672 246.000,257.046 246.000 C 259.333 246.000,259.200 249.044,259.200 196.560 C 259.200 144.877,259.272 146.709,257.184 145.591 C 256.776 145.373,256.356 144.521,256.200 143.597 C 255.893 141.784,255.112 140.800,253.979 140.800 C 253.476 140.800,253.125 140.424,252.952 139.700 C 252.591 138.189,252.132 137.693,250.829 137.406 C 250.215 137.271,249.219 136.646,248.615 136.016 C 247.807 135.172,246.844 134.736,244.959 134.362 C 243.437 134.059,242.400 133.649,242.400 133.349 C 242.400 131.565,243.315 131.600,196.747 131.600 L 152.871 131.600 151.861 132.800 " stroke="none" fill="#ffffff" fill-rule="evenodd"></path><path id="path1" d="" stroke="none" fill="#7fff7f" fill-rule="evenodd"></path></g></svg>